Coordinates
version=1
nRows=4
nColumns=63
inDegrees=yes

Units are S.I. units (second, meters, Newtons, ...)
If the header above contains a line with 'inDegrees', this indicates whether rotational values are in degrees (yes) or radians (no).

endheader
time	pelvis_tilt	pelvis_list	pelvis_rotation	pelvis_tx	pelvis_ty	pelvis_tz	hip_flexion_r	hip_adduction_r	hip_rotation_r	knee_angle_r	knee_angle_r_beta	ankle_angle_r	subtalar_angle_r	mtp_angle_r	hip_flexion_l	hip_adduction_l	hip_rotation_l	knee_angle_l	knee_angle_l_beta	ankle_angle_l	subtalar_angle_l	mtp_angle_l	L5_S1_Flex_Ext	L5_S1_Lat_Bending	L5_S1_axial_rotation	L4_L5_Flex_Ext	L4_L5_Lat_Bending	L4_L5_axial_rotation	L3_L4_Flex_Ext	L3_L4_Lat_Bending	L3_L4_axial_rotation	L2_L3_Flex_Ext	L2_L3_Lat_Bending	L2_L3_axial_rotation	L1_L2_Flex_Ext	L1_L2_Lat_Bending	L1_L2_axial_rotation	L1_T12_Flex_Ext	L1_T12_Lat_Bending	L1_T12_axial_rotation	Abs_r3	Abs_r2	Abs_r1	Abs_t1	Abs_t2	neck_flexion	neck_bending	neck_rotation	arm_flex_r	arm_add_r	arm_rot_r	elbow_flex_r	pro_sup_r	wrist_flex_r	wrist_dev_r	arm_flex_l	arm_add_l	arm_rot_l	elbow_flex_l	pro_sup_l	wrist_flex_l	wrist_dev_l
      2.80000000	      2.09839656	     -5.55268950	    104.21867623	      0.26844724	      0.83355722	      0.80192189	     -3.44872327	      3.58651184	      1.03955029	      5.84580161	      0.10202849	     24.68111837	     -5.17633818	      0.00000000	     -1.60041703	     -3.25952500	      4.23412767	      5.98387506	      0.10443832	     28.49457772	     -1.81564764	      0.00000000	     -0.14616211	     -0.05216915	     -0.76080962	     -0.27143765	     -0.06938497	     -0.80836022	     -0.24012972	     -0.12684408	     -0.80836022	     -0.16704867	     -0.12684408	     -0.66570841	     -0.13572613	     -0.10638333	     -0.61815781	     -0.08351703	     -0.08081002	     -0.57060721	     -1.04402131	     -0.59014788	     -4.23139485	      0.00000000	      0.00000000	     24.93646516	      0.03238681	    -14.31846619	      5.26050367	    -15.80351518	    -16.15816340	    136.36067734	     86.26445743	      3.12586115	     19.47181981	      7.85066269	    -14.57544171	     76.28798873	     22.62218157	     42.82109069	     -8.48006336	    -11.48592596
      2.81666667	      2.16738153	     -5.52756544	    104.73071878	      0.26715168	      0.83290772	      0.80220281	     -3.30479688	      3.64543731	      0.54636889	      6.16605861	      0.10761802	     25.03215908	     -5.23050578	      0.00000000	     -1.59200195	     -3.28965508	      5.21485972	      5.91525530	      0.10324068	     28.40985455	     -2.49792107	      0.00000000	     -0.16009617	     -0.02525207	     -0.63836179	     -0.29731459	     -0.03358526	     -0.67825940	     -0.26302199	     -0.06139789	     -0.67825940	     -0.18297391	     -0.06139789	     -0.55856657	     -0.14866530	     -0.05149402	     -0.51866896	     -0.09147895	     -0.03911546	     -0.47877134	     -1.14355090	     -0.28565649	     -3.55037678	      0.00000000	      0.00000000	     24.92211004	     -0.71426527	    -13.99924014	      3.32928965	    -16.54907891	    -16.54202686	    135.89930641	     85.98873535	      2.40017283	     23.09335177	      8.28014566	    -14.41726407	     76.27869637	     22.91287089	     44.03406103	     -8.28573698	    -11.79235589
      2.83333333	      2.21604393	     -5.51228823	    105.10268826	      0.26598483	      0.83235202	      0.80265934	     -3.11095014	      3.67055655	      0.25265024	      6.54762774	      0.11427766	     25.32895648	     -5.38264807	      0.00000000	     -1.56216614	     -3.30671109	      5.68267319	      5.88744215	      0.10275525	     28.46849535	     -2.69030331	      0.00000000	     -0.17006967	      0.00171231	     -0.56076997	     -0.31583639	      0.00227737	     -0.59581809	     -0.27940747	      0.00416331	     -0.59581809	     -0.19437263	      0.00416331	     -0.49067373	     -0.15792670	      0.00349174	     -0.45562560	     -0.09717781	      0.00265237	     -0.42057748	     -1.21479068	      0.01937001	     -3.11883435	      0.00000000	      0.00000000	     24.62754759	     -1.56151089	    -13.40826907	      2.14472804	    -17.03906190	    -16.31752409	    134.64246923	     85.79234856	      2.29197461	     24.62343923	      8.59295237	    -14.31327484	     76.38118672	     23.26875142	     44.64388740	     -8.08655706	    -12.13618467
      2.85000000	      2.21848702	     -5.43262441	    105.34684049	      0.26499929	      0.83204406	      0.80289867	     -3.04176490	      3.67250702	      0.09591730	      6.85140298	      0.11957954	     25.56126363	     -5.48499783	      0.00000000	     -1.59713449	     -3.29819662	      5.92633997	      5.94240384	      0.10371451	     28.60315407	     -2.76409631	      0.00000000	     -0.18842505	      0.01953381	     -0.49049459	     -0.34992416	      0.02597997	     -0.52115050	     -0.30956351	      0.04749451	     -0.52115050	     -0.21535099	      0.04749451	     -0.42918276	     -0.17497150	      0.03983335	     -0.39852685	     -0.10766607	      0.03025788	     -0.36787094	     -1.34590128	      0.22097040	     -2.72798374	      0.00000000	      0.00000000	     24.13323592	     -2.07996212	    -13.07544907	      1.41623754	    -17.24353246	    -15.84180749	    133.13789053	     85.65012551	      2.18977178	     25.28659770	      8.83813910	    -14.28770803	     76.45420547	     23.69716103	     44.94255791	     -7.91298923	    -12.40623174
